# xmcd
#
# Track frame offsets:
#	150
#	13312
#	34250
#	45257
#	61925
#	76875
#	91912
#	112630
#	129987
#	144570
#	159937
#	170300
#	187500
#	209587
#	224550
#	242437
#	257215
#	272455
#	286462
#	306195
#	321775
#
# Disc length: 4486 seconds
#
# Revision: 0
# Processed by: cddbd v1.5.1PL0 Copyright (c) Steve Scherf et al.
# Submitted via: audiograbber 1.83.01
#
DISCID=17118415
DTITLE=Various Artist - Soul Sensation
DYEAR=1992
DGENRE=Soul
TTITLE0=Addrisi Bros - Does She Do It Like She Dances
TTITLE1=Gladys Knight and The Pips - Make Yours A Happy Home
TTITLE2=Maxine Nightingale - Spinning Wheel
TTITLE3=Jimmy Helms - Gonna Make You An Offer You Can't Refuse
TTITLE4=Wilma Redding - Stay With Me Baby
TTITLE5=Retta Young - Sending Out An S.O.S.
TTITLE6=Norman Conners - You Are My Starship
TTITLE7=Michael Henderson - Take Me, I'm Yours
TTITLE8=The Moments and Whatnots - Girls
TTITLE9=The Real Thing - Can't Get By Without You
TTITLE10=Julie Grant - Up On The Roof
TTITLE11=Phyllis Hyman - Betcha By Golly Wow
TTITLE12=Shirley and Co - Shame Shame Shame
TTITLE13=Donnie Elbert - Where Did Out Love Go
TTITLE14=Candi Staton - Suspicious Minds
TTITLE15=P.P.Arnold - The First Cut Is The Deepest
TTITLE16=Kelly Marie - Feels Like I'm In Love
TTITLE17=The Moments - Dolly My Love
TTITLE18=Sylvia - Pillow Talk
TTITLE19=Sweet Sensation - Sad Sweet Dreamer
TTITLE20=Carl Douglas - Kung Fu Fighting
EXTD=Castle Masters Collection
EXTT0=
EXTT1=
EXTT2=
EXTT3=
EXTT4=
EXTT5=
EXTT6=
EXTT7=
EXTT8=
EXTT9=
EXTT10=
EXTT11=
EXTT12=
EXTT13=
EXTT14=
EXTT15=
EXTT16=
EXTT17=
EXTT18=
EXTT19=
EXTT20=
PLAYORDER=
